<?xml version="1.0" encoding="utf-8"?>
<!-- Generator: Adobe Illustrator 21.1.0, SVG Export Plug-In . SVG Version: 6.00 Build 0)  -->
<svg version="1.0" xmlns="http://www.w3.org/2000/svg" xmlns:xlink="http://www.w3.org/1999/xlink" x="0px" y="0px"
	 viewBox="0 0 576 273.5" style="enable-background:new 0 0 576 273.5;" xml:space="preserve">
<style type="text/css">
	.st0{fill-rule:evenodd;clip-rule:evenodd;fill:#EB2227;}
	.st1{fill-rule:evenodd;clip-rule:evenodd;fill:#FFFFFF;}
	.st2{fill:#211C1C;}
	.st3{fill:#EB222A;}
	.st4{fill:#FFFFFF;}
	.st5{fill:#EB2227;}
</style>
<g id="Layer_1">
	<path class="st0" d="M135.8,238.3c56.2,0,101.8-45.6,101.8-101.8c0-56.2-45.6-101.8-101.8-101.8C79.6,34.7,34,80.3,34,136.5
		C34,192.7,79.6,238.3,135.8,238.3L135.8,238.3z"/>
	<path class="st1" d="M106.9,194.9c0.7,0,1.2-0.5,1.2-1.2c0-0.7-0.5-1.2-1.2-1.2c-0.7,0-1.2,0.5-1.2,1.2
		C105.7,194.4,106.3,194.9,106.9,194.9L106.9,194.9z"/>
	<path class="st1" d="M108.1,204.3c0.5,0,0.9-0.4,0.9-0.9c0-0.5-0.4-0.9-0.9-0.9c-0.5,0-0.9,0.4-0.9,0.9
		C107.1,203.9,107.5,204.3,108.1,204.3L108.1,204.3z"/>
	<path class="st1" d="M150.2,195.4c0.5,0,0.8-0.4,0.8-0.8c0-0.5-0.4-0.8-0.8-0.8c-0.5,0-0.8,0.4-0.8,0.8
		C149.4,195,149.8,195.4,150.2,195.4L150.2,195.4z"/>
	<path class="st1" d="M178.8,178c0.3,0,0.6-0.3,0.6-0.6c0-0.3-0.3-0.6-0.6-0.6c-0.3,0-0.6,0.3-0.6,0.6
		C178.2,177.7,178.4,178,178.8,178L178.8,178z"/>
	<path class="st1" d="M179.6,189.3c0.3,0,0.6-0.3,0.6-0.6c0-0.3-0.3-0.6-0.6-0.6c-0.3,0-0.6,0.3-0.6,0.6
		C179,189.1,179.3,189.3,179.6,189.3L179.6,189.3z"/>
	<path class="st1" d="M184.9,210.8c0.7,0,1.2-0.5,1.2-1.2c0-0.7-0.5-1.2-1.2-1.2c-0.7,0-1.2,0.5-1.2,1.2
		C183.7,210.2,184.3,210.8,184.9,210.8L184.9,210.8z"/>
	<path class="st1" d="M186.1,173.2c0.7,0,1.2-0.6,1.2-1.2c0-0.7-0.6-1.2-1.2-1.2c-0.7,0-1.2,0.6-1.2,1.2
		C184.9,172.7,185.4,173.2,186.1,173.2L186.1,173.2z"/>
	<path class="st1" d="M186.5,180.2c0.3,0,0.6-0.3,0.6-0.6c0-0.3-0.3-0.6-0.6-0.6c-0.3,0-0.6,0.3-0.6,0.6
		C185.8,179.9,186.1,180.2,186.5,180.2L186.5,180.2z"/>
	<path class="st1" d="M198.1,167c0.3,0,0.6-0.3,0.6-0.6c0-0.3-0.3-0.6-0.6-0.6c-0.3,0-0.6,0.3-0.6,0.6
		C197.4,166.7,197.7,167,198.1,167L198.1,167z"/>
	<path class="st1" d="M209.4,179.9c0.4,0,0.8-0.4,0.8-0.8c0-0.4-0.4-0.8-0.8-0.8c-0.4,0-0.8,0.4-0.8,0.8
		C208.6,179.6,209,179.9,209.4,179.9L209.4,179.9z"/>
	<path class="st1" d="M214.5,177.5c0.6,0,1-0.5,1-1c0-0.6-0.5-1-1-1s-1,0.5-1,1C213.5,177.1,213.9,177.5,214.5,177.5L214.5,177.5z"
		/>
	<path class="st1" d="M199.9,188.4c0.5,0,1-0.4,1-1c0-0.5-0.4-1-1-1c-0.5,0-1,0.4-1,1C198.9,188,199.4,188.4,199.9,188.4
		L199.9,188.4z"/>
	<path class="st1" d="M210.4,193.2c0.3,0,0.5-0.2,0.5-0.5c0-0.3-0.2-0.5-0.5-0.5c-0.3,0-0.5,0.2-0.5,0.5
		C209.8,192.9,210.1,193.2,210.4,193.2L210.4,193.2z"/>
	<path class="st1" d="M202.9,194.3c0.9,0,1.5-0.7,1.5-1.5c0-0.9-0.7-1.5-1.5-1.5c-0.9,0-1.5,0.7-1.5,1.5
		C201.3,193.6,202,194.3,202.9,194.3L202.9,194.3z"/>
	<polygon class="st1" points="202,191.5 202.9,188.9 203.7,191.5 202,191.5 	"/>
	<polygon class="st1" points="202,194 202.9,196.6 203.7,194 202,194 	"/>
	<polygon class="st1" points="201.6,193.7 199,192.8 201.6,192 201.6,193.7 	"/>
	<polygon class="st1" points="204.1,193.7 206.7,192.8 204.1,192 204.1,193.7 	"/>
	<path class="st1" d="M200.1,172.9c0.5,0,1-0.4,1-1c0-0.5-0.4-1-1-1c-0.5,0-1,0.4-1,1C199.1,172.4,199.5,172.9,200.1,172.9
		L200.1,172.9z"/>
	<path class="st1" d="M168.1,213.4c0.5,0,1-0.4,1-1c0-0.5-0.4-1-1-1c-0.5,0-1,0.4-1,1C167.1,212.9,167.5,213.4,168.1,213.4
		L168.1,213.4z"/>
	<path class="st1" d="M131.3,202.6c0.5,0,1-0.4,1-1c0-0.5-0.4-1-1-1c-0.5,0-1,0.4-1,1C130.3,202.1,130.7,202.6,131.3,202.6
		L131.3,202.6z"/>
	<path class="st1" d="M96.6,202.8c0.5,0,1-0.4,1-1c0-0.5-0.4-1-1-1c-0.5,0-1,0.4-1,1C95.6,202.4,96.1,202.8,96.6,202.8L96.6,202.8z"
		/>
	<path class="st1" d="M100.6,180.2c0.4,0,0.7-0.3,0.7-0.7c0-0.4-0.3-0.7-0.7-0.7c-0.4,0-0.7,0.3-0.7,0.7
		C99.9,179.9,100.2,180.2,100.6,180.2L100.6,180.2z"/>
	<path class="st1" d="M88.8,188.3c0.4,0,0.7-0.3,0.7-0.7c0-0.4-0.3-0.7-0.7-0.7c-0.4,0-0.7,0.3-0.7,0.7
		C88.1,188,88.4,188.3,88.8,188.3L88.8,188.3z"/>
	<path class="st1" d="M62.2,180.5c0.4,0,0.7-0.3,0.7-0.7c0-0.4-0.3-0.7-0.7-0.7c-0.4,0-0.7,0.3-0.7,0.7
		C61.5,180.2,61.8,180.5,62.2,180.5L62.2,180.5z"/>
	<path class="st1" d="M73.1,181.5c0.4,0,0.7-0.3,0.7-0.7c0-0.4-0.3-0.7-0.7-0.7c-0.4,0-0.7,0.3-0.7,0.7
		C72.5,181.2,72.8,181.5,73.1,181.5L73.1,181.5z"/>
	<path class="st1" d="M71.1,186.8c0.7,0,1.2-0.5,1.2-1.2c0-0.7-0.5-1.2-1.2-1.2c-0.7,0-1.2,0.5-1.2,1.2
		C69.9,186.3,70.4,186.8,71.1,186.8L71.1,186.8z"/>
	<path class="st1" d="M74.9,191.4c0.7,0,1.2-0.5,1.2-1.2c0-0.7-0.5-1.2-1.2-1.2c-0.7,0-1.2,0.5-1.2,1.2
		C73.7,190.8,74.2,191.4,74.9,191.4L74.9,191.4z"/>
	<path class="st1" d="M100.9,216.4c1.1,0,1.9-0.9,1.9-1.9c0-1.1-0.9-1.9-1.9-1.9c-1.1,0-1.9,0.9-1.9,1.9
		C99,215.5,99.8,216.4,100.9,216.4L100.9,216.4z"/>
	<polygon class="st1" points="99.7,212.9 100.9,206.1 102,212.9 99.7,212.9 	"/>
	<polygon class="st1" points="99.7,215.9 100.9,222.7 102,216 99.7,215.9 	"/>
	<polygon class="st1" points="99.3,215.7 92.2,214.5 99.3,213.4 99.3,215.7 	"/>
	<polygon class="st1" points="102.4,215.7 109.8,214.5 102.5,213.4 102.4,215.7 	"/>
	<path class="st1" d="M212.2,172.6c1.1,0,1.9-0.9,1.9-1.9c0-1.1-0.9-1.9-1.9-1.9c-1.1,0-1.9,0.9-1.9,1.9
		C210.3,171.7,211.2,172.6,212.2,172.6L212.2,172.6z"/>
	<polygon class="st1" points="211.1,169.1 212.2,162.3 213.3,169 211.1,169.1 	"/>
	<polygon class="st1" points="211.1,172.1 212.2,178.9 213.3,172.1 211.1,172.1 	"/>
	<polygon class="st1" points="210.7,171.8 203.6,170.7 210.6,169.6 210.7,171.8 	"/>
	<polygon class="st1" points="213.8,171.8 221.1,170.7 213.8,169.6 213.8,171.8 	"/>
	<g>
		<path class="st1" d="M162.9,61.7c1.1,0,1.9-0.9,1.9-1.9c0-1.1-0.9-1.9-1.9-1.9c-1.1,0-1.9,0.9-1.9,1.9
			C160.9,60.8,161.8,61.7,162.9,61.7L162.9,61.7z"/>
		<polygon class="st1" points="161.7,58.1 162.9,51.4 163.9,58.1 161.7,58.1 		"/>
		<polygon class="st1" points="161.7,61.2 162.9,68 163.9,61.2 161.7,61.2 		"/>
		<polygon class="st1" points="161.3,60.9 154.2,59.8 161.2,58.7 161.3,60.9 		"/>
		<polygon class="st1" points="164.4,60.9 171.8,59.8 164.4,58.7 164.4,60.9 		"/>
	</g>
	<g>
		<path class="st1" d="M113.2,86.1c1.1,0,1.9-0.9,1.9-1.9c0-1.1-0.9-1.9-1.9-1.9c-1.1,0-1.9,0.9-1.9,1.9
			C111.2,85.2,112.1,86.1,113.2,86.1L113.2,86.1z"/>
		<polygon class="st1" points="112,82.6 113.2,75.8 114.2,82.6 112,82.6 		"/>
		<polygon class="st1" points="112,85.6 113.2,92.4 114.2,85.7 112,85.6 		"/>
		<polygon class="st1" points="111.6,85.4 104.5,84.2 111.6,83.1 111.6,85.4 		"/>
		<polygon class="st1" points="114.7,85.4 122.1,84.2 114.7,83.1 114.7,85.4 		"/>
	</g>
	<g>
		<path class="st2" d="M193.1,154.8c-1.9,0-18.4,0.5-21.8,1.3c-2.4,0.6-6.8-0.5-8.3-0.9c-0.8-0.2-1.6,0.2-1.8,0.9
			c-0.2,0.7,0.2,1.5,0.9,1.8c0.2,0.1,4,1.2,7.4,1.2c0.9,0,1.7-0.1,2.4-0.3c2.6-0.6,16.1-1.1,21.1-1.2c0.8,0,1.4-0.7,1.4-1.5
			C194.6,155.4,193.9,154.8,193.1,154.8"/>
		<path class="st3" d="M190.6,107.6l-53,2.3 M146.5,109.2l7.4-15.6 M153.9,109.2l12.4-15.3 M166.2,108.7l8.6-12.2 M176.2,108.3
			l4.8-8.6 M176.2,108.3l5.9,7.8 M166.2,108.7l7.8,12.5 M153.9,109.2l5.6,9.9 M146.5,109.2l3.6,11.3 M86.8,110h46.5 M123,110
			l-5.6-14.8 M113.3,110l-3.2-15 M104,110l-7.5-9.5 M104,110l-7.5,10.7 M113.3,110l-8.2,12.4 M123,110l-6.3,10.7 M148.8,94.8l1,0.2"
			/>
		<path class="st4" d="M182.3,114l-3.4-4.5l8.5-0.4C186.2,110.5,184.5,112.2,182.3,114z M168.7,110l6.7-0.3l4.6,6.1
			c-1.6,1.2-3.5,2.4-5.5,3.5L168.7,110L168.7,110z M139,105.2v-1.5c1.5-1.3,6.6-5.5,12.1-7.8l-5.8,12.2l-6.3,0.3V105.2L139,105.2z
			 M135.5,101.7c-0.4,0-0.9,0.1-1.3,0.2c-1.1-1.4-5.8-6.2-15.1-7.9c-4.7-7.4-6.3-14.2-4.6-20.1c1.3-4.8,4.6-8.1,6.9-9.9
			c-0.4,4.4-0.1,8.5,1,12.2c0,0.1,0,0.2,0.1,0.3c0.9,2.8,2.2,5.4,4,7.8c5.7,7.4,14.3,10.3,19,11.4c-4.5,2.6-8,5.7-8.7,6.3
			C136.4,101.8,135.9,101.7,135.5,101.7L135.5,101.7z M129.2,122.4c1-0.7,1.9-1.5,2.6-2.3v4.1C131.3,123.8,130.5,123.1,129.2,122.4
			L129.2,122.4z M89.2,111.4h12.1l-5.1,7.3C92.6,116.2,90.4,113.3,89.2,111.4L89.2,111.4z M96.3,102.4l4.8,6.1H89.8
			C91.2,106.9,93.4,104.6,96.3,102.4L96.3,102.4z M131.9,105.2v3.3H124L119.6,97c7.5,1.6,11.3,5.5,12.3,6.6L131.9,105.2L131.9,105.2
			z M116.3,96.4l4.6,12.1h-6.4l-2.6-12.3c0.2,0,0.4,0,0.6,0C113.8,96.2,115.1,96.3,116.3,96.4L116.3,96.4z M108.9,96.5l2.6,12h-6.8
			l-6.1-7.8C101.6,98.8,105.1,97.2,108.9,96.5L108.9,96.5z M102.6,122l-0.4-0.2c-1.3-0.5-2.5-1-3.6-1.6l6.1-8.8h5.8l-6.8,10.2
			c0,0,0,0.1,0,0.1C103.4,121.8,103,121.9,102.6,122L102.6,122z M108,120.5l6-9.1h6.4l-4.7,7.9C113.2,119.3,110.6,119.8,108,120.5
			L108,120.5z M126.2,120.9c-1.9-0.7-4.3-1.4-7.1-1.6l4.7-8h8.1v3.9C131.5,116,130,118.8,126.2,120.9
			C126.2,120.9,126.2,120.9,126.2,120.9L126.2,120.9z M101.4,83c0-5.1,2.5-9,7.4-11.8c1.6-0.9,3.1-1.5,4.5-1.9
			c-0.6,1.2-1.1,2.4-1.5,3.8c-1.7,6.2-0.5,13,3.8,20.4c-1-0.1-2-0.1-3.1-0.1c-2.4,0-4.7,0.4-6.9,1C102.8,90.9,101.4,87.1,101.4,83
			L101.4,83z M112.6,57.1c2.4-2.8,5.4-4.3,8.3-3.8c1.4,0.2,2.5,0.9,3.4,1.9c0,0,0,0,0,0c0.3,0.4,0.7,0.8,0.9,1.3
			c-0.5,0.3-1.1,0.7-1.6,1.2c-0.9,0.7-1.3,1.8-1.5,2.4c-1.2,0.7-4,2.5-6.5,5.6c-1.1,0.2-3.7,0.8-6.4,2.1
			C109,65.5,109.3,61,112.6,57.1L112.6,57.1z M139.4,49.2c6.6,0,10.4,3.5,12.1,5.6c-3.4-0.1-6.1,0.5-6.3,0.5c0,0-0.1,0-0.1,0
			c-0.1,0-0.1,0-0.2,0c0,0-0.1,0-0.1,0.1c0,0,0,0,0,0c-0.1,0-0.2,0.1-0.2,0.2c0,0-0.1,0-0.1,0.1c-0.8,0.8-1.6,1.4-2.3,2
			c-1.2-3-3.5-4.8-6.4-4.8c-4,0-6.3,2-7.5,3.5c-0.3-0.8-0.7-1.5-1.1-2.1C128.5,52.7,132.1,49.2,139.4,49.2L139.4,49.2z M165.9,69.2
			c-0.1,2-0.8,3.8-2.2,5.4c-1.6-9.7-8.3-13.8-9.7-14.6c-0.3-0.6-0.7-1.2-1.2-1.8c-0.2-0.2-0.3-0.3-0.5-0.5c3.1,0.2,6.8,0.9,9.4,3.1
			C164.5,63.1,166,66.2,165.9,69.2L165.9,69.2z M170.3,83.7c0,3.5-2.1,6.8-5.4,8.6c-1.6-0.2-3.2-0.4-4.9-0.5
			c2.2-2.5,4.1-6.5,4.1-12.8c0-0.3,0-0.5,0-0.7c0.9-0.8,1.7-1.6,2.4-2.5C167.9,77,170.3,79.8,170.3,83.7L170.3,83.7z M181.5,101.7
			c2.6,1.7,4.6,3.4,5.9,4.7l-8.7,0.4L181.5,101.7L181.5,101.7z M175.3,98.3c1.3,0.6,2.6,1.2,3.8,1.9l-3.7,6.7l-6.2,0.3L175.3,98.3
			L175.3,98.3z M166.8,95.5c2.1,0.4,4,1,5.7,1.7l-7.1,10.1l-8.5,0.4L166.8,95.5L166.8,95.5z M135,81.1c3,0,5.5-0.8,7.5-1.7
			c7.2-3.4,11.6-11.2,12.1-15.6c2.6,2.1,6.7,6.7,6.7,15.2c0,6.1-1.9,10.6-5.6,12.9c0,0,0,0,0,0c-0.7,0.1-1.4,0.2-2.1,0.4
			c0,0-0.1,0-0.1,0c-1.2,0.3-2.5,0.7-3.7,1.3l-0.5-0.1c0,0-0.1,0-0.1,0c0,0-0.1,0-0.1,0c-0.1,0-13.1-1.6-20.2-10.9
			c-0.8-1.1-1.5-2.2-2.1-3.4C129.7,80.5,132.5,81.1,135,81.1L135,81.1z M124.1,67.2c2.2,1.8,5.8,4.2,9.5,4.3
			c2.4,0.1,4.6-0.7,6.4-2.5c4.9-4.6,6.3-8.6,6.7-10.8c1.2,0.2,2.9,0.7,3.9,1.8c0.7,0.8,1.1,1.9,0.9,3.2c-0.3,3.2-4,10.4-10.5,13.5
			c-5,2.4-10.4,1.8-16.1-1.7C124.4,72.6,124.1,70,124.1,67.2L124.1,67.2z M130.2,58.6c0.7-1,2.3-2.9,5.5-2.9c2.2,0,3.4,1.7,3.9,3.5
			c-2,1-3.8,1.4-5.6,1.2C132.5,60.2,131.2,59.4,130.2,58.6L130.2,58.6z M125.5,59.8c0.3-0.3,0.7-0.6,1.1-0.8
			c1.1,1.4,3.5,3.7,7.1,4.2c0.5,0.1,1,0.1,1.5,0.1c2.5,0,5.1-0.9,7.8-2.7c-0.8,1.7-2.3,3.9-4.9,6.4c-1.3,1.2-2.7,1.7-4.3,1.7
			c-4-0.1-8.1-3.8-9.4-5.1c0.1-0.7,0.2-1.5,0.3-2.2C124.7,61.1,125,60.3,125.5,59.8L125.5,59.8z M148.6,108.1l6.3-13.2
			c0.9-0.2,1.8-0.3,2.7-0.3c2.1,0,4.1,0.2,6,0.4l-10.4,12.9L148.6,108.1L148.6,108.1z M191.9,108.1c0.1-0.2,0.1-0.3,0.1-0.5
			c0,0,0,0,0,0c0,0,0,0,0-0.1c0-0.1,0-0.3-0.1-0.4c0-0.1-0.1-0.1-0.1-0.2c0-0.1-0.1-0.1-0.1-0.2c-0.4-0.5-8.2-10.1-22.9-13.7
			c2.7-2.4,4.4-5.8,4.4-9.3c0-5.4-3.5-9.1-5.2-10.5c0.5-1.2,0.8-2.5,0.9-3.9c0.1-3.9-1.8-7.8-5.2-10.6c-2.5-2.1-5.5-3.1-8.5-3.5
			c0,0,0-0.1,0-0.1c-0.2-0.4-4.7-8.7-15.7-8.7c-8,0-12.4,3.8-14.2,5.9c-1.1-0.9-2.4-1.4-3.9-1.7c-3.9-0.7-8,1.1-11,4.8
			c-4.5,5.5-4.3,11.7-4,14.1c-4.1,2.6-7.8,6.8-7.8,13.6c0,4.5,1.4,8.6,4.2,12.4c-10.1,4.1-16.7,13.3-17.1,13.8
			c0,0.1-0.1,0.1-0.1,0.2c0,0,0,0,0,0.1c-0.1,0.2-0.1,0.3-0.1,0.5c0,0,0,0,0,0.1s0,0,0,0.1c0,0.2,0,0.3,0.1,0.5l0,0c0,0,0,0,0,0
			c0.2,0.5,3.5,8.2,12.9,12.8c-5.6,1.6-12,3.1-20.4,3.1c-0.8,0-1.4,0.6-1.4,1.4c0,0.8,0.6,1.4,1.4,1.4c10.8,0,18.5-2.3,25.2-4.3
			c4.9-1.5,9.1-2.8,13.5-2.8c9.1,0,13.7,4.6,13.7,4.7l3,3c0.3,0.3,0.7,0.4,1,0.4c0.4,0,0.7-0.1,1-0.4c0.6-0.6,0.6-1.5,0-2l-0.7-0.7
			v-21.8c0-0.4,0.3-0.7,0.7-0.7c0.4,0,0.7,0.3,0.7,0.7V126c0,0.8,0.6,1.4,1.4,1.4s1.4-0.6,1.4-1.4v-5.8c1,1,2.2,2.1,3.9,3.1
			c0.7,0.4,1.6,0.2,2-0.5c0.4-0.7,0.2-1.5-0.5-2c-3.6-2.1-5-4.8-5.4-5.6v-3.9l6.5-0.3l3.2,9.9c0.2,0.6,0.8,1,1.4,1
			c0.1,0,0.3,0,0.4-0.1c0.8-0.2,1.2-1,0.9-1.8l-2.9-9.1l4.5-0.2l5.2,9.1c0.3,0.5,0.8,0.7,1.3,0.7c0.2,0,0.5-0.1,0.7-0.2
			c0.7-0.4,0.9-1.3,0.6-1.9l-4.5-7.9l9.2-0.4l6.5,10.4c-0.4,0.2-0.7,0.3-1.1,0.5c-0.7,0.3-1.1,1.1-0.8,1.9c0.2,0.5,0.8,0.9,1.3,0.9
			c0.2,0,0.4,0,0.6-0.1c1-0.4,1.9-0.8,2.7-1.3c0,0,0.1,0,0.1,0c0,0,0,0,0,0c10.7-5.3,16.7-13.5,17-13.9c0.1-0.1,0.1-0.1,0.1-0.2
			C191.9,108.2,191.9,108.1,191.9,108.1L191.9,108.1z M101.4,163.1c-8.5-10.8-23.1-8-23.8-7.9c-0.8,0.2-1.3,0.9-1.1,1.7
			c0.2,0.8,0.9,1.3,1.7,1.1c0.1,0,13.5-2.5,20.9,6.8c0.6,0.8,1.4,1.6,2.2,2.3c0.3,0.2,0.6,0.4,1,0.4c0.4,0,0.8-0.2,1.1-0.5
			c0.5-0.6,0.5-1.5-0.1-2C102.6,164.4,102,163.8,101.4,163.1 M162.6,154.4l-0.4-0.4c-0.9-0.9-11.2-11-18.9-18.6
			c-0.6-0.6-1.5-0.6-2,0c-0.6,0.6-0.6,1.5,0,2c7.8,7.6,18,17.7,18.9,18.6l0.4,0.4c1.5,1.4,5.4,5.2,5.4,8.1c0,0.7-0.2,1.3-0.8,1.8
			c-0.8,0.8-1.6,1.1-2.5,1.1c-2,0-3.9-1.7-4.3-2.1c-0.8-0.9-1.7-1.6-2.3-2.2c-0.3-0.3-0.5-0.5-0.7-0.6l-6.2-6.1l-2,2l6.2,6.1
			c0.2,0.2,0.5,0.4,0.8,0.7c1.3,1.2,4.5,3.9,4.6,6c0,0.5-0.2,1-0.6,1.4c-0.7,0.7-1.3,1-2.1,0.9c-1.5-0.1-3-1.5-3.4-2l0,0
			c-0.4-0.5-0.8-1-1.4-1.6l-7.5-7.4l-2,2l7.5,7.4c1.2,1.2,2,2.3,2.2,3.3c0.2,1,0,1.8-0.9,2.6c-1.4,1.4-3.5,0.4-4.3,0
			c-0.3-0.6-0.8-1.1-1.3-1.6c-1.7-1.7-6.2-6.7-6.3-6.7c-0.5-0.6-1.4-0.6-2-0.1c-0.6,0.5-0.7,1.4-0.1,2c0.2,0.2,4.6,5.1,6.4,6.9
			c0.7,0.7,1.3,1.7,1.4,2.5c0.1,0.9-0.1,1.7-0.8,2.4c-0.3,0.3-0.6,0.4-1,0.4c-1,0-3.2-0.7-7.6-5.1c-0.6-0.6-1.5-0.6-2,0
			c-0.6,0.5-0.6,1.4,0,2c3.9,4,7.1,6,9.7,6h0c1.2,0,2.2-0.4,3.1-1.2c1.1-1.1,1.7-2.4,1.7-3.9c0.5,0.1,1,0.2,1.5,0.2
			c1.3,0,2.7-0.4,3.8-1.5c1.1-1.1,1.7-2.4,1.8-3.8c0.5,0.2,1,0.3,1.6,0.3c0.1,0,0.2,0,0.3,0c1.5,0,2.8-0.6,4-1.8
			c1-1,1.5-2.2,1.5-3.5c0-0.4-0.1-0.7-0.2-1.1c0.4,0.1,0.8,0.1,1.2,0.1h0.1c1.7,0,3.2-0.7,4.5-2c1.1-1.1,1.6-2.4,1.6-3.8
			C168.8,160.5,164.4,156.2,162.6,154.4"/>
		<path class="st2" d="M133.3,176.4c-1.6,3.8-6.6,8.7-9,8.7c-0.3,0-0.4-0.1-0.6-0.2c-1.1-1.3,0.7-4.7,4.5-8.4
			c1.7-1.7,3.3-2.6,4.4-2.6c0.4,0,0.7,0.1,0.9,0.4C133.8,174.5,133.8,175.2,133.3,176.4L133.3,176.4z M115.1,180.9
			c-1.8-1.8,1.5-6.6,5.6-10.7c0.6-0.6,1.4-1.4,2.3-2.2c0,0,0.1-0.1,0.1-0.1c0,0,0,0,0,0c1.5-1.2,3.1-2.4,4.3-2.4
			c0.4,0,0.8,0.1,1.1,0.5c0.5,0.5,0.8,1.1,0.8,1.8c0,2.8-3.9,6.6-5.6,8.2l-0.4,0.4c-0.2,0.2-0.4,0.4-0.7,0.7
			c-1.6,1.6-4.3,4.3-6.2,4.3C115.9,181.5,115.5,181.3,115.1,180.9L115.1,180.9z M108.5,175.5c-1.7-1.7,1.5-6.2,5.3-10
			c3.9-3.8,6.2-4.9,7.7-3.6c0.5,0.5,1.7,1.5-0.5,4.2c-0.8,0.7-1.6,1.4-2.3,2.2c-1.7,1.7-3.9,4.1-5.3,6.5
			C112.1,175.8,110,177,108.5,175.5L108.5,175.5z M103.2,169.6c-0.7-0.7,0.1-2.4,0.6-3.3c1.1-1.8,2.8-3.6,3.7-4.4l0.4-0.4
			c1.2-1.2,3.3-3.2,4.5-3.2c0.2,0,0.3,0,0.6,0.3c0.3,0.2,0.4,0.5,0.4,0.9c0,1.8-2.1,4.7-4.3,6.8l-0.5,0.5c-1.1,1.1-3.2,3.2-4.6,3.2
			C103.7,170,103.5,169.9,103.2,169.6L103.2,169.6z M132.6,171.1c-0.4,0-0.9,0.1-1.3,0.2c0.5-1.1,0.9-2.2,0.9-3.3
			c0-1.5-0.5-2.7-1.6-3.8c-0.9-0.9-2-1.3-3.2-1.3c-0.8,0-1.5,0.2-2.3,0.5c0-1.6-0.9-2.8-1.7-3.5c-2.3-2.1-5-1.4-7.2,0
			c0-0.1,0-0.2,0-0.4c0-1.2-0.5-2.2-1.3-2.9c-0.7-0.7-1.6-1-2.6-1c-2.4,0-4.7,2.3-6.5,4.1l-0.4,0.4c-1,1-2.9,2.9-4.1,5
			c-2.2,3.6-1.3,5.7-0.2,6.8c0.8,0.8,1.8,1.2,2.8,1.2c0.5,0,1-0.1,1.4-0.3c-0.5,1.8-0.4,3.6,1,5c1.1,1,2.3,1.6,3.7,1.6
			c0.5,0,1.1-0.1,1.6-0.2c-0.2,1.5,0.1,2.9,1.3,4.1c1,0.9,2.1,1.4,3.4,1.4c1.5,0,2.9-0.7,4.2-1.6c-0.3,1.4-0.1,2.8,0.9,4
			c0.7,0.8,1.6,1.2,2.7,1.2h0c4.2,0,10-6.4,11.7-10.5c1.2-2.9,0.4-4.5-0.4-5.3C134.8,171.5,133.7,171.1,132.6,171.1L132.6,171.1z
			 M124.4,143.7c0-6.2,9.9-13.3,14.6-16.7c1-0.7,1.8-1.3,2.4-1.8c3.3-2.7,10.1-4.2,18.3-4.2c6.3,0,11.6,2.9,14.9,5.3
			c4.1,3,17.1,3.1,18.5,3.1c0.8,0,1.4-0.6,1.4-1.4c0-0.8-0.6-1.4-1.4-1.4H193c-5.2,0-14.2-0.7-16.7-2.5c-3.6-2.7-9.5-5.9-16.6-5.9
			c-9,0-16.4,1.8-20.2,4.9c-0.5,0.4-1.3,1-2.2,1.6c-5.5,3.9-15.8,11.3-15.8,18.9c-0.1,0.8-0.5,7.8,2.7,11.2c1.2,1.3,2.8,2,4.6,2
			c1.6,0,2.9-0.5,3.9-1.5c2.1-2.1,1.9-6,1.7-9c-0.1-1.2-0.1-2.8,0-3.2c1.7-2.1,5.3-5.3,7.8-5.3c0.8,0,1.4-0.6,1.4-1.4
			c0-0.8-0.6-1.4-1.4-1.4c-4.1,0-8.7,4.6-10.1,6.4c-0.8,1-0.7,2.7-0.6,5.1c0.1,2.4,0.3,5.7-0.9,6.9c-0.3,0.3-0.7,0.6-1.8,0.6
			c-1,0-1.8-0.3-2.5-1c-2-2.2-2.1-7.3-1.9-9.1C124.4,143.8,124.4,143.8,124.4,143.7"/>
	</g>
</g>
<g id="Layer_2">
	<g>
		<path d="M289.6,99.1c0,7.6-3,10.2-8.9,10.2h-5.6V89h5.6C286.6,89,289.6,91.6,289.6,99.1z M287,99.1c0-6.1-1.9-7.8-5.9-7.8h-3.3
			V107h3.3C285.1,107,287,105.3,287,99.1z"/>
		<path d="M292.7,102.6v-1.1c0-4.7,2.5-6.9,6.2-6.9c3.7,0,5.9,2.1,5.9,6.6c0,1.4-0.6,1.8-2,1.8h-7.5c0,3.1,1.5,4.4,4.2,4.4
			c1.7,0,2.8-0.5,3.9-1.4l1,1.4c-1,1-2.7,2.1-5.3,2.1C295.2,109.5,292.7,107.2,292.7,102.6z M302.4,101.1c0-3.1-1.2-4.4-3.5-4.4
			c-2.2,0-3.6,1.3-3.6,4.4H302.4z"/>
		<path d="M327.9,99.7v9.5h-2.6v-9.6c0-1.9-0.8-2.9-2.5-2.9c-1.9,0-3,1.3-3.5,2.4v10.2h-2.5v-9.6c0-1.9-0.9-2.9-2.5-2.9
			c-1.9,0-3,1.3-3.5,2.4v10.2h-2.6V94.8h2.6v2.4c0.7-1.2,2-2.6,4.3-2.6c1.9,0,3.2,1,3.8,2.6h0c0.7-1.2,2.2-2.6,4.6-2.6
			C326.5,94.6,327.9,96.6,327.9,99.7z"/>
		<path d="M331.6,102.5v-0.9c0-4.8,2.4-7,6.3-7c3.9,0,6.3,2.2,6.3,7v0.9c0,4.8-2.4,7-6.3,7C334,109.5,331.6,107.3,331.6,102.5z
			 M341.6,102.5v-0.9c0-3.6-1.5-4.9-3.7-4.9c-2.3,0-3.8,1.2-3.8,4.9v0.9c0,3.7,1.5,4.9,3.8,4.9C340.2,107.4,341.6,106.1,341.6,102.5
			z"/>
		<path d="M357.6,105.9l1,1.5c-1,1-2.5,2.1-5.1,2.1c-3.9,0-6.2-2.3-6.2-7v-0.9c0-4.7,2.3-7,6.2-7c2.6,0,4.1,1.1,5.1,2.1l-1,1.5
			c-1.1-0.8-2-1.5-3.8-1.5c-2.6,0-4,1.3-4,4.9v0.9c0,3.5,1.4,4.9,4,4.9C355.6,107.4,356.5,106.8,357.6,105.9z"/>
		<path d="M368.8,96.9c-1.9,0-3.5,1.3-4,2.9v9.5h-2.6V94.8h2.6v2.7c0.7-1.4,2-2.9,4.2-2.9c0.4,0,0.7,0,1,0.1V97
			C369.6,97,369.2,96.9,368.8,96.9z"/>
		<path d="M383.4,109.3h-1.8c-0.6,0-0.9-0.5-0.9-1.3v-1.2c-1,1.5-2.6,2.7-4.9,2.7c-2.4,0-4.4-1.4-4.4-4.3c0-3,2.2-4.1,5.5-4.5
			l3.7-0.4v-0.6c0-2.2-0.9-3-3-3c-2,0-3.4,0.7-4.3,1.3l-0.8-1.8c1.5-1,3.1-1.6,5.4-1.6c3.5,0,5.3,1.6,5.3,5.2v8.2
			C383.2,108.7,383.2,109,383.4,109.3z M380.6,104.5v-2.3l-3.3,0.4c-2.2,0.2-3.4,0.8-3.4,2.6c0,1.5,0.9,2.2,2.6,2.2
			C378.9,107.4,380.3,106.1,380.6,104.5z"/>
		<path d="M393.8,107.2v1.9c-0.8,0.3-1.7,0.4-2.2,0.4c-2.7,0-3.5-1.6-3.5-4.4v-8.2h-2.5v-2.1h2.5v-3.5l2.6-0.3v3.9h3.3l0,2.1h-3.3
			v8.2C390.7,106.9,391.3,107.6,393.8,107.2z"/>
		<path d="M398.5,88.8h0.6c0.8,0,1.2,0.4,1.2,1.2v0.6c0,0.8-0.4,1.2-1.2,1.2h-0.6c-0.8,0-1.2-0.4-1.2-1.2V90
			C397.2,89.2,397.7,88.8,398.5,88.8z M400,94.8v14.5h-2.6V94.8H400z"/>
		<path d="M414.1,105.9l1,1.5c-1,1-2.5,2.1-5.1,2.1c-3.9,0-6.2-2.3-6.2-7v-0.9c0-4.7,2.3-7,6.2-7c2.6,0,4.1,1.1,5.1,2.1l-1,1.5
			c-1.1-0.8-2-1.5-3.8-1.5c-2.6,0-4,1.3-4,4.9v0.9c0,3.5,1.4,4.9,4,4.9C412.1,107.4,413,106.8,414.1,105.9z"/>
		<path d="M439.5,103.7c0,3.6-3.2,5.8-7,5.8c-3.2,0-6.1-1.7-7.2-4.4l1.9-1.2c1.2,2.1,3.2,3.2,5.3,3.2c2,0,4.4-0.9,4.4-3.3
			c0-2.1-2-3-4.7-4c-3.7-1.3-5.9-3-5.9-5.8c0-3.2,2.9-5.3,6.4-5.3c3.3,0,5.7,1.9,6.7,3.9l-1.8,1.3c-1.4-2-3-2.8-4.9-2.8
			c-2,0-3.8,1-3.8,3c0,1.6,1.2,2.4,3.8,3.5C436.2,98.9,439.5,100.1,439.5,103.7z"/>
		<path d="M442.1,102.5v-0.9c0-4.8,2.4-7,6.3-7c3.9,0,6.3,2.2,6.3,7v0.9c0,4.8-2.4,7-6.3,7C444.6,109.5,442.1,107.3,442.1,102.5z
			 M452.2,102.5v-0.9c0-3.6-1.5-4.9-3.7-4.9c-2.3,0-3.8,1.2-3.8,4.9v0.9c0,3.7,1.5,4.9,3.8,4.9C450.7,107.4,452.2,106.1,452.2,102.5
			z"/>
		<path d="M468.1,105.9l1,1.5c-1,1-2.5,2.1-5.1,2.1c-3.9,0-6.2-2.3-6.2-7v-0.9c0-4.7,2.3-7,6.2-7c2.6,0,4.1,1.1,5.1,2.1l-1,1.5
			c-1.1-0.8-2-1.5-3.8-1.5c-2.6,0-4,1.3-4,4.9v0.9c0,3.5,1.4,4.9,4,4.9C466.1,107.4,467,106.8,468.1,105.9z"/>
		<path d="M474,88.8h0.6c0.8,0,1.2,0.4,1.2,1.2v0.6c0,0.8-0.4,1.2-1.2,1.2H474c-0.8,0-1.2-0.4-1.2-1.2V90
			C472.7,89.2,473.2,88.8,474,88.8z M475.5,94.8v14.5H473V94.8H475.5z"/>
		<path d="M491.1,109.3h-1.8c-0.6,0-0.9-0.5-0.9-1.3v-1.2c-1,1.5-2.6,2.7-4.9,2.7c-2.4,0-4.4-1.4-4.4-4.3c0-3,2.2-4.1,5.5-4.5
			l3.7-0.4v-0.6c0-2.2-0.9-3-3-3c-2,0-3.4,0.7-4.3,1.3l-0.8-1.8c1.5-1,3.1-1.6,5.4-1.6c3.5,0,5.3,1.6,5.3,5.2v8.2
			C490.9,108.7,490.9,109,491.1,109.3z M488.4,104.5v-2.3l-3.3,0.4c-2.2,0.2-3.4,0.8-3.4,2.6c0,1.5,0.9,2.2,2.6,2.2
			C486.6,107.4,488,106.1,488.4,104.5z"/>
		<path d="M495.2,88.3h2.6v21h-2.6V88.3z"/>
		<path d="M503.3,88.8h0.6c0.8,0,1.2,0.4,1.2,1.2v0.6c0,0.8-0.4,1.2-1.2,1.2h-0.6c-0.8,0-1.2-0.4-1.2-1.2V90
			C502,89.2,502.4,88.8,503.3,88.8z M504.8,94.8v14.5h-2.6V94.8H504.8z"/>
		<path d="M519.7,105.4c0,2.7-2.7,4.2-5.6,4.1c-3,0-5.2-1.6-5.6-4.1l2.2-0.3c0.4,1.4,1.7,2.3,3.5,2.3c1.5,0,3-0.6,3-2.1
			c0-1.1-0.8-1.8-3.1-2.5c-3.3-1-4.9-2.4-4.9-4.4c0-2.2,2-3.9,4.9-3.9c3,0,5,1.7,5.2,3.9l-2,0.4c-0.4-1.2-1.4-2.2-3.2-2.2
			c-1.5,0-2.4,0.7-2.4,1.9c0,1,0.7,1.6,2.6,2.2C517.5,101.8,519.7,102.8,519.7,105.4z"/>
		<path d="M529.9,107.2v1.9c-0.8,0.3-1.7,0.4-2.2,0.4c-2.7,0-3.5-1.6-3.5-4.4v-8.2h-2.5v-2.1h2.5v-3.5l2.6-0.3v3.9h3.3l0,2.1h-3.3
			v8.2C526.7,106.9,527.4,107.6,529.9,107.2z"/>
		<path d="M543.7,105.4c0,2.7-2.7,4.2-5.6,4.1c-3,0-5.2-1.6-5.6-4.1l2.2-0.3c0.4,1.4,1.7,2.3,3.5,2.3c1.5,0,3-0.6,3-2.1
			c0-1.1-0.8-1.8-3.1-2.5c-3.3-1-4.9-2.4-4.9-4.4c0-2.2,2-3.9,4.9-3.9c3,0,5,1.7,5.2,3.9l-2,0.4c-0.4-1.2-1.4-2.2-3.2-2.2
			c-1.5,0-2.4,0.7-2.4,1.9c0,1,0.7,1.6,2.6,2.2C541.5,101.8,543.7,102.8,543.7,105.4z"/>
		<path d="M274.5,137.3v-0.9c0-4.8,2.4-7,6.3-7c3.9,0,6.3,2.2,6.3,7v0.9c0,4.8-2.4,7-6.3,7C276.9,144.3,274.5,142.1,274.5,137.3z
			 M284.5,137.3v-0.9c0-3.6-1.5-4.9-3.7-4.9c-2.3,0-3.8,1.2-3.8,4.9v0.9c0,3.7,1.5,4.9,3.8,4.9C283.1,142.2,284.5,140.9,284.5,137.3
			z"/>
		<path d="M294.4,129.6h3.9v2.1h-3.9v12.4h-2.6v-12.4h-2.3v-2.1h2.3v-1.8c0-3.4,1.2-4.8,4.7-4.8h1.8l0.2,2.2h-2
			c-1.6,0-2.1,0.8-2.1,2.7V129.6z"/>
		<path d="M320.6,139.4h-8.1l-1.4,4.7h-2.7l6.3-20.3h3.8l6.2,20.3H322L320.6,139.4z M320,137.1l-3.2-10.6h-0.4l-3.2,10.6H320z"/>
		<path d="M347.6,134.5v9.5H345v-9.6c0-1.9-0.8-2.9-2.5-2.9c-1.9,0-3,1.3-3.5,2.4v10.2h-2.5v-9.6c0-1.9-0.9-2.9-2.5-2.9
			c-1.9,0-3,1.3-3.5,2.4v10.2H328v-14.5h2.6v2.4c0.7-1.2,2-2.6,4.3-2.6c1.9,0,3.2,1,3.8,2.6h0c0.7-1.2,2.2-2.6,4.6-2.6
			C346.1,129.4,347.6,131.4,347.6,134.5z"/>
		<path d="M351.2,137.4v-1.1c0-4.7,2.5-6.9,6.2-6.9c3.7,0,5.9,2.1,5.9,6.6c0,1.4-0.6,1.8-2,1.8h-7.5c0,3.1,1.5,4.4,4.2,4.4
			c1.7,0,2.8-0.5,3.9-1.4l1,1.4c-1,1-2.7,2.1-5.3,2.1C353.8,144.3,351.3,142,351.2,137.4z M360.9,135.9c0-3.1-1.2-4.4-3.5-4.4
			c-2.2,0-3.6,1.3-3.6,4.4H360.9z"/>
		<path d="M373.4,131.7c-1.9,0-3.5,1.3-4,2.9v9.5h-2.6v-14.5h2.6v2.7c0.7-1.4,2-2.9,4.2-2.9c0.4,0,0.7,0,1,0.1v2.4
			C374.3,131.8,373.9,131.7,373.4,131.7z"/>
		<path d="M379.1,123.6h0.6c0.8,0,1.2,0.4,1.2,1.2v0.6c0,0.8-0.4,1.2-1.2,1.2h-0.6c-0.8,0-1.2-0.4-1.2-1.2v-0.6
			C377.9,124,378.3,123.6,379.1,123.6z M380.7,129.6v14.5h-2.6v-14.5H380.7z"/>
		<path d="M394.8,140.7l1,1.5c-1,1-2.5,2.1-5.1,2.1c-3.9,0-6.2-2.3-6.2-7v-0.9c0-4.7,2.3-7,6.2-7c2.6,0,4.1,1.1,5.1,2.1l-1,1.5
			c-1.1-0.8-2-1.5-3.8-1.5c-2.6,0-4,1.3-4,4.9v0.9c0,3.5,1.4,4.9,4,4.9C392.8,142.2,393.7,141.6,394.8,140.7z"/>
		<path d="M410.6,144.1h-1.8c-0.6,0-0.9-0.5-0.9-1.3v-1.2c-1,1.5-2.6,2.7-4.9,2.7c-2.4,0-4.4-1.4-4.4-4.3c0-3,2.2-4.1,5.5-4.5
			l3.7-0.4v-0.6c0-2.2-0.9-3-3-3c-2,0-3.4,0.7-4.3,1.3l-0.8-1.8c1.5-1,3.1-1.6,5.4-1.6c3.5,0,5.3,1.6,5.3,5.2v8.2
			C410.4,143.5,410.4,143.8,410.6,144.1z M407.8,139.3V137l-3.3,0.4c-2.2,0.2-3.4,0.8-3.4,2.6c0,1.5,0.9,2.2,2.6,2.2
			C406,142.2,407.4,140.9,407.8,139.3z"/>
		<path class="st5" d="M287,177c0,3.3-3,5.3-6.3,5.3c-3.1,0-5.6-1.6-6.6-4l1.5-0.9c1,2,2.9,3.1,5.1,3.1c2.1,0,4.3-1.1,4.3-3.4
			c0-2.2-2-3-4.6-4c-3.3-1.2-5.5-2.7-5.5-5.3c0-3,2.7-4.8,5.8-4.8c2.9,0,5.2,1.6,6.1,3.6l-1.4,1.1c-1.3-1.9-2.8-2.8-4.7-2.8
			c-2.1,0-3.8,1.1-3.8,3c0,1.7,1.3,2.5,3.8,3.5C284,172.6,287,173.7,287,177z"/>
		<path class="st5" d="M301.6,175v0.7c0,4.3-2.3,6.6-5.3,6.6c-2,0-3.4-0.8-4.2-2.4l0.1,2.2v5.4h-1.9v-18.9h1.9v2
			c0.8-1.4,2.2-2.2,4-2.2C299.3,168.4,301.6,170.6,301.6,175z M299.7,175c0-3.4-1.6-4.9-3.8-4.9c-2,0-3.7,1.3-3.7,4.9v0.7
			c0,3.5,1.6,4.9,3.8,4.9c2.1,0,3.7-1.5,3.7-4.9V175z"/>
		<path class="st5" d="M315.1,182.1h-1.3c-0.5,0-0.8-0.5-0.8-1.2v-1.2c-0.9,1.5-2.6,2.6-4.8,2.6c-2.3,0-4.1-1.3-4.1-3.9
			c0-2.8,2-3.8,5-4.2l3.8-0.4v-0.5c0-2.4-0.9-3.2-3-3.2c-1.9,0-3.2,0.7-4,1.3l-0.6-1.4c1.2-0.9,2.8-1.5,4.9-1.5
			c3.2,0,4.8,1.5,4.8,4.9v7.6C314.9,181.5,314.9,181.8,315.1,182.1z M312.9,177.8v-2.5l-3.5,0.4c-2.2,0.3-3.4,0.9-3.4,2.6
			c0,1.5,1,2.3,2.7,2.3C310.8,180.6,312.4,179.4,312.9,177.8z"/>
		<path class="st5" d="M327.9,179.2l0.8,1.2c-0.9,0.9-2.3,1.9-4.7,1.9c-3.5,0-5.7-2-5.7-6.5v-0.9c0-4.5,2.2-6.5,5.7-6.5
			c2.4,0,3.8,1,4.7,1.9l-0.8,1.2c-1-0.8-1.9-1.4-3.6-1.4c-2.6,0-4,1.3-4,4.8v0.9c0,3.5,1.4,4.8,4,4.8
			C326,180.6,326.9,180,327.9,179.2z"/>
		<path class="st5" d="M331.5,175.9v-1c0-4.5,2.3-6.5,5.7-6.5c3.4,0,5.4,1.9,5.4,6.2c0,1.1-0.4,1.5-1.6,1.5h-7.6
			c0,3.2,1.5,4.5,4.2,4.5c1.6,0,2.8-0.5,3.8-1.3l0.8,1.1c-0.9,0.9-2.5,1.9-4.8,1.9C333.8,182.3,331.5,180.3,331.5,175.9z
			 M340.7,174.6c0-3.2-1.2-4.5-3.5-4.5c-2.3,0-3.7,1.3-3.8,4.5H340.7z"/>
		<path class="st5" d="M364.2,178.6l1.4,1.2c-1.3,1.8-3.2,2.5-5.5,2.5c-4.6,0-7.4-2.9-7.4-9.6c0-6.8,2.8-9.6,7.4-9.6
			c2.3,0,4.2,0.7,5.5,2.5l-1.4,1.2c-0.9-1.3-2.4-1.8-4.1-1.8c-3.4,0-5.4,2.3-5.4,7.8c0,5.5,2,7.8,5.4,7.8
			C361.9,180.4,363.3,179.9,364.2,178.6z"/>
		<path class="st5" d="M368.2,175.8v-0.9c0-4.5,2.3-6.5,5.7-6.5c3.5,0,5.7,2.1,5.7,6.5v0.9c0,4.4-2.3,6.5-5.7,6.5
			C370.5,182.3,368.2,180.2,368.2,175.8z M377.7,175.8v-0.9c0-3.5-1.5-4.8-3.8-4.8c-2.3,0-3.8,1.3-3.8,4.8v0.9
			c0,3.5,1.5,4.8,3.8,4.8C376.3,180.6,377.7,179.3,377.7,175.8z"/>
		<path class="st5" d="M393.1,182.1h-1.3c-0.5,0-0.8-0.5-0.8-1.2v-1.2c-0.9,1.5-2.6,2.6-4.8,2.6c-2.3,0-4.1-1.3-4.1-3.9
			c0-2.8,2-3.8,5-4.2l3.8-0.4v-0.5c0-2.4-0.9-3.2-3-3.2c-1.9,0-3.2,0.7-4,1.3l-0.6-1.4c1.2-0.9,2.8-1.5,4.9-1.5
			c3.2,0,4.8,1.5,4.8,4.9v7.6C392.9,181.5,392.9,181.8,393.1,182.1z M391,177.8v-2.5l-3.5,0.4c-2.2,0.3-3.4,0.9-3.4,2.6
			c0,1.5,1,2.3,2.7,2.3C388.9,180.6,390.5,179.4,391,177.8z"/>
		<path class="st5" d="M406.5,178.5c0,2.5-2.5,3.9-5.1,3.8c-2.6,0-4.7-1.4-5-3.7l1.7-0.2c0.4,1.4,1.7,2.3,3.4,2.3
			c1.6,0,3.1-0.7,3.1-2.2c0-1.2-1-1.8-3.1-2.5c-2.9-0.9-4.5-2.1-4.5-4c0-2.1,1.9-3.5,4.4-3.5c2.7,0,4.5,1.6,4.8,3.5l-1.6,0.4
			c-0.4-1.2-1.4-2.2-3.2-2.2c-1.5,0-2.5,0.7-2.5,1.9c0,1.1,0.8,1.6,2.7,2.3C404.4,175.2,406.5,176.1,406.5,178.5z"/>
		<path class="st5" d="M415.8,180.5v1.5c-0.7,0.3-1.4,0.4-2,0.4c-2.3,0-3-1.3-3-3.8v-8.2h-2.4v-1.6h2.4v-3.2l1.9-0.3v3.6h3.2l0,1.6
			h-3.2v8.2C412.8,180.1,413.4,180.8,415.8,180.5z"/>
	</g>
</g>
</svg>
