<?xml version="1.0" encoding="utf-8"?>
<!-- Generator: Adobe Illustrator 21.1.0, SVG Export Plug-In . SVG Version: 6.00 Build 0)  -->
<svg version="1.0" id="Layer_1" xmlns="http://www.w3.org/2000/svg" xmlns:xlink="http://www.w3.org/1999/xlink" x="0px" y="0px"
	 viewBox="0 0 1728 1596" style="enable-background:new 0 0 1728 1596;" xml:space="preserve">
<style type="text/css">
	.st0{fill-rule:evenodd;clip-rule:evenodd;fill:#FFFFFF;}
	.st1{fill-rule:evenodd;clip-rule:evenodd;fill:#ED1C24;}
	.st2{fill:#211C1C;}
	.st3{fill:#EB222A;}
	.st4{fill:#FFFFFF;}
</style>
<g>
	<polygon class="st0" points="171.3,122.6 1556.7,122.6 1556.7,1508 171.3,1508 171.3,122.6 	"/>
	<path class="st1" d="M842.3,1334.3c300.1,0,543.5-243.3,543.5-543.5c0-300.1-243.3-543.5-543.5-543.5
		c-300.2,0-543.5,243.3-543.5,543.5C298.8,1091,542.1,1334.3,842.3,1334.3L842.3,1334.3z"/>
	<path class="st0" d="M688.2,1102.8c3.5,0,6.4-2.9,6.4-6.4c0-3.5-2.9-6.4-6.4-6.4c-3.5,0-6.4,2.9-6.4,6.4
		C681.8,1099.9,684.6,1102.8,688.2,1102.8L688.2,1102.8z"/>
	<path class="st0" d="M694.1,1152.9c2.7,0,4.8-2.2,4.8-4.9c0-2.7-2.2-4.9-4.8-4.9c-2.7,0-4.9,2.2-4.9,4.9
		C689.3,1150.7,691.4,1152.9,694.1,1152.9L694.1,1152.9z"/>
	<path class="st0" d="M919.2,1105.3c2.4,0,4.4-2,4.4-4.4c0-2.4-2-4.4-4.4-4.4c-2.4,0-4.4,2-4.4,4.4
		C914.8,1103.3,916.7,1105.3,919.2,1105.3L919.2,1105.3z"/>
	<path class="st0" d="M1071.5,1012.3c1.7,0,3.1-1.4,3.1-3.1c0-1.7-1.4-3.1-3.1-3.1c-1.7,0-3.1,1.4-3.1,3.1
		C1068.5,1010.9,1069.8,1012.3,1071.5,1012.3L1071.5,1012.3z"/>
	<path class="st0" d="M1075.9,1072.8c1.7,0,3.1-1.4,3.1-3.1c0-1.7-1.4-3.1-3.1-3.1c-1.7,0-3.1,1.4-3.1,3.1
		C1072.8,1071.4,1074.2,1072.8,1075.9,1072.8L1075.9,1072.8z"/>
	<path class="st0" d="M1104.5,1187.3c3.5,0,6.4-2.9,6.4-6.4c0-3.5-2.9-6.4-6.4-6.4c-3.5,0-6.4,2.9-6.4,6.4
		C1098.1,1184.4,1100.9,1187.3,1104.5,1187.3L1104.5,1187.3z"/>
	<path class="st0" d="M1110.7,986.8c3.7,0,6.6-3,6.6-6.6c0-3.7-3-6.6-6.6-6.6c-3.7,0-6.6,3-6.6,6.6
		C1104.1,983.8,1107,986.8,1110.7,986.8L1110.7,986.8z"/>
	<path class="st0" d="M1112.6,1023.9c1.8,0,3.3-1.5,3.3-3.3c0-1.8-1.5-3.3-3.3-3.3c-1.8,0-3.3,1.5-3.3,3.3
		C1109.3,1022.4,1110.7,1023.9,1112.6,1023.9L1112.6,1023.9z"/>
	<path class="st0" d="M1174.5,953.4c1.8,0,3.3-1.5,3.3-3.3c0-1.8-1.5-3.3-3.3-3.3c-1.8,0-3.3,1.5-3.3,3.3
		C1171.2,951.9,1172.6,953.4,1174.5,953.4L1174.5,953.4z"/>
	<path class="st0" d="M1235,1022.7c2.3,0,4.2-1.9,4.2-4.2c0-2.3-1.9-4.2-4.2-4.2c-2.3,0-4.2,1.9-4.2,4.2
		C1230.8,1020.9,1232.7,1022.7,1235,1022.7L1235,1022.7z"/>
	<path class="st0" d="M1262.2,1009.9c3,0,5.5-2.5,5.5-5.5c0-3-2.5-5.5-5.5-5.5s-5.5,2.5-5.5,5.5
		C1256.7,1007.4,1259.1,1009.9,1262.2,1009.9L1262.2,1009.9z"/>
	<path class="st0" d="M1184.5,1068c2.9,0,5.3-2.4,5.3-5.3c0-2.9-2.4-5.3-5.3-5.3c-2.9,0-5.3,2.4-5.3,5.3
		C1179.2,1065.6,1181.5,1068,1184.5,1068L1184.5,1068z"/>
	<path class="st0" d="M1240.1,1093.3c1.6,0,2.9-1.3,2.9-2.9c0-1.6-1.3-2.9-2.9-2.9c-1.6,0-2.9,1.3-2.9,2.9
		C1237.3,1092,1238.6,1093.3,1240.1,1093.3L1240.1,1093.3z"/>
	<path class="st0" d="M1200.2,1099.6c4.6,0,8.3-3.7,8.3-8.2s-3.7-8.2-8.3-8.2c-4.6,0-8.2,3.7-8.2,8.2S1195.7,1099.6,1200.2,1099.6
		L1200.2,1099.6z"/>
	<polygon class="st0" points="1195.3,1084.5 1200.3,1070.5 1204.8,1084.4 1195.3,1084.5 	"/>
	<polygon class="st0" points="1195.3,1097.5 1200.3,1111.6 1204.8,1097.7 1195.3,1097.5 	"/>
	<polygon class="st0" points="1193.5,1096.4 1179.5,1091.4 1193.3,1086.9 1193.5,1096.4 	"/>
	<polygon class="st0" points="1206.8,1096.4 1220.8,1091.4 1206.9,1086.9 1206.8,1096.4 	"/>
	<path class="st0" d="M1185.3,985.1c2.9,0,5.3-2.4,5.3-5.3c0-2.9-2.4-5.3-5.3-5.3c-2.9,0-5.3,2.4-5.3,5.3
		C1180,982.7,1182.4,985.1,1185.3,985.1L1185.3,985.1z"/>
	<path class="st0" d="M1014.5,1201.1c2.9,0,5.3-2.4,5.3-5.3c0-2.9-2.4-5.3-5.3-5.3c-2.9,0-5.3,2.4-5.3,5.3
		C1009.2,1198.7,1011.6,1201.1,1014.5,1201.1L1014.5,1201.1z"/>
	<path class="st0" d="M818,1143.4c2.9,0,5.3-2.4,5.3-5.3c0-2.9-2.4-5.3-5.3-5.3c-2.9,0-5.3,2.4-5.3,5.3
		C812.7,1141,815.1,1143.4,818,1143.4L818,1143.4z"/>
	<path class="st0" d="M633.2,1145c2.9,0,5.3-2.4,5.3-5.3c0-2.9-2.4-5.3-5.3-5.3c-2.9,0-5.3,2.4-5.3,5.3
		C627.9,1142.6,630.3,1145,633.2,1145L633.2,1145z"/>
	<path class="st0" d="M654.3,1023.9c1.9,0,3.5-1.6,3.5-3.5c0-1.9-1.6-3.5-3.5-3.5c-2,0-3.5,1.6-3.5,3.5
		C650.7,1022.3,652.3,1023.9,654.3,1023.9L654.3,1023.9z"/>
	<path class="st0" d="M591.1,1067.5c1.9,0,3.5-1.6,3.5-3.5c0-1.9-1.6-3.5-3.5-3.5c-2,0-3.5,1.6-3.5,3.5
		C587.6,1066,589.1,1067.5,591.1,1067.5L591.1,1067.5z"/>
	<path class="st0" d="M449.2,1025.4c1.9,0,3.5-1.6,3.5-3.5c0-1.9-1.6-3.5-3.5-3.5c-2,0-3.5,1.6-3.5,3.5
		C445.6,1023.9,447.2,1025.4,449.2,1025.4L449.2,1025.4z"/>
	<path class="st0" d="M507.7,1030.9c1.9,0,3.5-1.6,3.5-3.5c0-1.9-1.6-3.5-3.5-3.5c-2,0-3.5,1.6-3.5,3.5
		C504.1,1029.3,505.7,1030.9,507.7,1030.9L507.7,1030.9z"/>
	<path class="st0" d="M496.7,1059.5c3.5,0,6.4-2.9,6.4-6.4c0-3.5-2.9-6.4-6.4-6.4c-3.5,0-6.4,2.9-6.4,6.4
		C490.3,1056.6,493.2,1059.5,496.7,1059.5L496.7,1059.5z"/>
	<path class="st0" d="M517,1083.7c3.5,0,6.4-2.9,6.4-6.4c0-3.5-2.9-6.4-6.4-6.4c-3.5,0-6.4,2.9-6.4,6.4
		C510.6,1080.8,513.5,1083.7,517,1083.7L517,1083.7z"/>
	<path class="st0" d="M966.3,386.1c5.7,0,10.3-4.6,10.3-10.3c0-5.7-4.6-10.3-10.3-10.3c-5.7,0-10.3,4.6-10.3,10.3
		C956,381.5,960.6,386.1,966.3,386.1L966.3,386.1z"/>
	<polygon class="st0" points="960.1,367.3 966.4,331 972,367.1 960.1,367.3 	"/>
	<polygon class="st0" points="960.1,383.6 966.4,419.8 972,383.8 960.1,383.6 	"/>
	<polygon class="st0" points="957.9,382.1 920.1,375.9 957.7,370.2 957.9,382.1 	"/>
	<polygon class="st0" points="974.5,382.1 1013.9,375.9 974.7,370.2 974.5,382.1 	"/>
	<path class="st0" d="M713.1,531.9c5.7,0,10.3-4.6,10.3-10.3c0-5.7-4.6-10.3-10.3-10.3c-5.7,0-10.3,4.6-10.3,10.3
		C702.8,527.2,707.4,531.9,713.1,531.9L713.1,531.9z"/>
	<polygon class="st0" points="707,513.1 713.2,476.8 718.9,512.9 707,513.1 	"/>
	<polygon class="st0" points="707,529.4 713.2,565.6 718.9,529.5 707,529.4 	"/>
	<polygon class="st0" points="704.8,527.9 666.9,521.6 704.6,516 704.8,527.9 	"/>
	<polygon class="st0" points="721.3,527.9 760.7,521.6 721.5,516 721.3,527.9 	"/>
	<path class="st0" d="M655.9,1217.4c5.7,0,10.3-4.6,10.3-10.3c0-5.7-4.6-10.3-10.3-10.3c-5.7,0-10.3,4.6-10.3,10.3
		C645.6,1212.8,650.2,1217.4,655.9,1217.4L655.9,1217.4z"/>
	<polygon class="st0" points="649.8,1198.6 656,1162.3 661.7,1198.4 649.8,1198.6 	"/>
	<polygon class="st0" points="649.8,1214.9 656,1251.1 661.7,1215.1 649.8,1214.9 	"/>
	<polygon class="st0" points="647.5,1213.4 609.7,1207.2 647.3,1201.5 647.5,1213.4 	"/>
	<polygon class="st0" points="664.1,1213.4 703.5,1207.2 664.3,1201.5 664.1,1213.4 	"/>
	<path class="st0" d="M1250.1,983.4c5.7,0,10.3-4.6,10.3-10.3c0-5.7-4.6-10.3-10.3-10.3c-5.7,0-10.3,4.6-10.3,10.3
		C1239.8,978.8,1244.4,983.4,1250.1,983.4L1250.1,983.4z"/>
	<polygon class="st0" points="1244,964.6 1250.2,928.4 1255.9,964.4 1244,964.6 	"/>
	<polygon class="st0" points="1244,980.9 1250.2,1017.2 1255.9,981.1 1244,980.9 	"/>
	<polygon class="st0" points="1241.8,979.5 1203.9,973.2 1241.6,967.6 1241.8,979.5 	"/>
	<polygon class="st0" points="1258.3,979.5 1297.7,973.2 1258.5,967.6 1258.3,979.5 	"/>
</g>
<g>
	<path class="st2" d="M1137.6,888.7c-10,0.2-98,2.4-116.1,6.9c-12.9,3.2-36.2-2.4-44.2-4.8c-4-1.3-8.4,1-9.6,5c-1.3,4,1,8.3,5.1,9.5
		c1.1,0.3,21.3,6.4,39.4,6.4c4.6,0,9-0.4,13-1.4c13.9-3.4,86.1-5.8,112.8-6.4c4.2-0.1,7.6-3.6,7.5-7.8
		C1145.4,891.9,1141.8,888.7,1137.6,888.7"/>
	<path class="st3" d="M1123.9,636.7l-282.8,12.5 M888.6,645l39.3-83.2 M927.9,645.4l66-81.8 M993.9,642.4l45.7-65.2 M1046.9,640.1
		l25.8-46.1 M1046.9,640.1l31.5,41.8 M993.9,642.4l41.4,66.6 M927.9,645.4l30.1,52.9 M888.6,645l19.3,60.3 M569.9,649.2h248.3
		 M763,649.2l-30-79.1 M711.3,649.2L694,569 M661.8,649.2l-39.8-50.8 M661.8,649.2l-39.8,57.1 M711.3,649.2l-43.9,66.2 M763,649.2
		l-33.8,57.1 M900.9,568.1l5.2,1.2"/>
	<path class="st4" d="M1079.8,670.9l-18-23.9l45.2-2C1100.6,652.1,1091.4,661.3,1079.8,670.9z M1007.3,649.5l35.8-1.6l24.5,32.5
		c-8.8,6.5-18.7,12.9-29.6,18.6L1007.3,649.5L1007.3,649.5z M848.9,624v-8c8-7,35.1-29.5,64.6-41.5l-30.8,65.3l-33.7,1.5V624
		L848.9,624z M829.7,605c-2.4,0-4.7,0.5-6.8,1.3c-6-7.2-30.8-33.2-80.6-42.3c-25.1-39.7-33.4-75.7-24.7-107.2
		c7.2-25.8,24.7-43.2,37-52.7c-2.3,23.7-0.4,45.3,5.5,64.9c0.1,0.5,0.2,0.9,0.4,1.3c4.7,15.1,11.7,29.1,21.2,41.6
		c30.2,39.5,76.6,55,101.3,60.8c-24.1,14-42.6,30.3-46.5,33.9C834.5,605.5,832.1,605,829.7,605L829.7,605z M796.5,715.5
		c5.6-4,10.2-8.1,14-12.1v21.8C807.7,722.9,803.1,719.3,796.5,715.5L796.5,715.5z M582.7,656.8h64.5l-27.2,39
		C600.8,682.2,589,666.8,582.7,656.8L582.7,656.8z M620.6,609l25.6,32.6h-60.3C593.5,632.9,605.5,620.6,620.6,609L620.6,609z
		 M810.5,624v17.6h-42.1l-23.4-61.7c40,8.7,60.2,29.1,65.6,35.4L810.5,624L810.5,624z M727.4,577.1l24.5,64.5h-34.4L703.4,576
		c1.1,0,2.1-0.1,3.2-0.1C714,575.9,720.9,576.3,727.4,577.1L727.4,577.1z M688,577.5l13.8,64.1h-36.1l-32.5-41.5
		C649,589.7,667.6,581,688,577.5L688,577.5z M654.3,713.6l-2.1-0.9c-7-2.6-13.3-5.6-19.1-8.8l32.8-47H697l-36.1,54.4
		c-0.1,0.1-0.1,0.3-0.2,0.4C658.6,712.2,656.5,712.9,654.3,713.6L654.3,713.6z M683.3,705.3l32.2-48.5h34.1l-24.9,42
		C710.7,699.3,697.2,701.7,683.3,705.3L683.3,705.3z M780.4,707.8c-10.3-4-23-7.3-38.1-8.6l25.2-42.5h43v20.7
		C808.6,681.5,800.6,696.1,780.4,707.8C780.4,707.8,780.4,707.8,780.4,707.8L780.4,707.8z M647.7,505c0-27,13.3-48.1,39.5-62.7
		c8.3-4.7,16.7-7.9,23.8-10.2c-3.2,6.2-6.1,12.9-8.1,20.3c-9.2,32.9-2.4,69.4,20.1,108.9c-5.2-0.4-10.7-0.7-16.3-0.7
		c-12.8,0-25.1,2-36.6,5.3C655.3,547.4,647.7,526.9,647.7,505L647.7,505z M707.5,367.1c12.5-15.2,29-22.8,44.2-20.2
		c7.2,1.2,13.4,4.7,18.2,10c0.1,0.1,0.1,0.2,0.2,0.2c1.8,2.1,3.5,4.4,4.9,7c-2.8,1.7-6.1,3.8-8.8,6.2c-4.5,4-7,9.4-8.2,13
		c-6.3,3.7-21.4,13.4-34.7,30.1c-6,1.2-19.5,4.4-34.4,11.3C688.3,411.6,690.2,388.1,707.5,367.1L707.5,367.1z M850.9,324.6
		c35.2,0,55.6,18.9,64.6,30.1c-18.4-0.3-32.6,2.5-33.8,2.8c-0.2,0-0.3,0.2-0.5,0.2c-0.3,0.1-0.5,0.1-0.8,0.2
		c-0.2,0.1-0.3,0.2-0.4,0.3c-0.1,0-0.1,0.1-0.2,0.1c-0.5,0.2-0.9,0.5-1.3,0.8c-0.2,0.1-0.3,0.2-0.5,0.3c-4.2,4-8.4,7.4-12.4,10.5
		c-6.4-16.3-18.4-25.5-34.1-25.5c-21.2,0-33.5,10.6-39.9,18.9c-1.6-4.1-3.6-7.9-5.9-11.3C792.4,343.6,812,324.6,850.9,324.6
		L850.9,324.6z M992.4,431.6c-0.3,10.5-4.3,20.2-11.5,28.6c-8.6-52-44.4-73.8-52-77.9c-1.5-3.4-3.6-6.6-6.2-9.4
		c-0.9-0.9-1.8-1.8-2.7-2.7c16.7,0.8,36,4.7,50.1,16.6C984.8,399.2,992.9,415.5,992.4,431.6L992.4,431.6z M1015.6,509
		c0,18.6-11.2,36.4-28.6,45.7c-8.3-1.3-17-2.2-26-2.7c11.8-13.3,21.8-34.6,21.8-68.5c0-1.4-0.1-2.6-0.2-3.9c4.9-4,9.3-8.4,12.8-13.2
		C1003.1,473.5,1015.6,488.3,1015.6,509L1015.6,509z M1075.4,605c13.8,9.1,24.4,18.1,31.6,24.9l-46.6,2.1L1075.4,605L1075.4,605z
		 M1042.2,586.9c7.2,3.2,13.9,6.6,20,10.1l-20,35.8l-33.2,1.5L1042.2,586.9L1042.2,586.9z M997,572c11,2.4,21.1,5.4,30.7,8.9
		L989.8,635l-45.3,2L997,572L997,572z M827.1,494.9c16,0,29.4-4.1,39.9-9.1c38.4-18.4,61.8-59.8,64.4-83.4
		c13.8,11.1,35.9,35.9,35.9,81.1c0,32.8-10.4,56.6-30.1,68.7c0,0-0.1,0.1-0.1,0.1c-3.8,0.5-7.6,1.3-11.4,2.2
		c-0.2,0.1-0.4,0.1-0.6,0.2c-6.7,1.7-13.3,4-19.7,6.7l-2.8-0.6c-0.1,0-0.3,0-0.4,0c-0.2,0-0.3-0.1-0.5-0.1
		c-0.7-0.1-69.9-8.4-107.8-58c-4.3-5.6-8-11.6-11.2-17.9C799.1,492.1,814,494.9,827.1,494.9L827.1,494.9z M769.2,421
		c11.9,9.8,30.9,22.3,50.8,23c13,0.4,24.4-4,34.2-13.1c26.1-24.7,33.8-46.1,36-57.5c6.3,1.1,15.5,3.6,21.1,9.7c4,4.3,5.6,9.9,5,17
		c-1.5,17-21.4,55.6-56,72.1c-26.6,12.7-55.5,9.6-85.9-9.3C770.7,449.9,768.9,436,769.2,421L769.2,421z M801.9,375.3
		c3.5-5.5,12.2-15.6,29.5-15.6c12,0,17.9,9.3,20.9,18.7c-10.5,5.5-20.4,7.7-29.7,6.4C813.9,383.7,807,379.6,801.9,375.3L801.9,375.3
		z M776.4,381.6c1.7-1.5,3.9-3,6.1-4.2c6.1,7.6,18.7,19.8,37.7,22.5c2.6,0.4,5.1,0.6,7.7,0.6c13.4,0,27.4-5,41.7-14.7
		c-4.5,9.3-12.3,21.1-26.2,34.1c-6.7,6.3-14.3,9.2-22.9,8.9c-21.4-0.7-43.1-20.4-50.1-27.2c0.4-3.9,1-7.8,1.7-11.8
		C772.4,388.6,773.8,383.9,776.4,381.6L776.4,381.6z M899.9,639l33.4-70.7c4.8-1,9.5-1.5,14.2-1.5c11.3,0,22,0.8,32.2,2.2
		l-55.6,68.9L899.9,639L899.9,639z M1131.2,639.1c0.3-0.9,0.5-1.8,0.4-2.7c0,0,0,0,0-0.1c0-0.1-0.1-0.3-0.1-0.4
		c-0.1-0.7-0.3-1.5-0.6-2.2c-0.1-0.3-0.3-0.6-0.5-0.9c-0.2-0.3-0.3-0.6-0.5-0.9c-2.1-2.7-43.6-54.2-122.3-73.3
		c14.5-12.7,23.4-30.9,23.4-49.7c0-29-18.7-48.4-27.9-56.1c2.8-6.6,4.3-13.6,4.6-20.8c0.7-20.7-9.4-41.4-27.7-56.8
		c-13.2-11.1-29.6-16.5-45.1-18.9c-0.1-0.2-0.1-0.4-0.2-0.5c-1-1.9-25.2-46.4-83.8-46.4c-42.8,0-66.1,20.2-76,31.6
		c-6-4.6-12.9-7.7-20.7-9c-20.7-3.5-42.6,6-58.7,25.6c-24.2,29.4-23,62.4-21.4,75.1c-21.7,13.7-41.8,36.1-41.8,72.4
		c0,23.8,7.5,46,22.4,66.3c-54,22-89.2,70.8-91.1,73.5c-0.3,0.4-0.4,0.8-0.6,1.1c-0.1,0.1-0.1,0.2-0.2,0.4c-0.3,0.8-0.5,1.7-0.5,2.6
		c0,0.1,0,0.2,0,0.3c0,0.1,0,0.2,0,0.3c0,0.9,0.2,1.7,0.5,2.5l0,0.1c0,0,0,0,0,0c1.1,2.7,18.9,43.7,68.9,68.1
		c-29.9,8.6-64.3,16.3-109,16.3c-4.3,0-7.7,3.4-7.7,7.6c0,4.2,3.5,7.6,7.7,7.6c57.9,0,98.6-12.3,134.5-23.2
		c26.1-7.9,48.6-14.7,72-14.7c48.5,0,72.9,24.5,73.3,24.8l16.2,15.9c1.5,1.5,3.5,2.2,5.4,2.2c2,0,3.9-0.7,5.5-2.2c3-3,3-7.8,0-10.7
		l-3.7-3.6V623.9c0-2.1,1.7-3.7,3.8-3.7c2.1,0,3.8,1.7,3.8,3.7v110.7c0,4.2,3.5,7.6,7.7,7.6s7.7-3.4,7.7-7.6v-31.1
		c5.2,5.5,12,11.3,20.8,16.5c3.6,2.2,8.4,1,10.6-2.5c2.2-3.6,1.1-8.2-2.6-10.4c-19-11.4-26.9-25.7-28.8-29.7v-21l34.9-1.5l16.8,52.6
		c1,3.2,4.1,5.3,7.3,5.3c0.8,0,1.6-0.1,2.3-0.3c4.1-1.3,6.3-5.5,5-9.5l-15.6-48.7l23.9-1.1l27.7,48.8c1.4,2.5,4,3.9,6.7,3.9
		c1.3,0,2.6-0.3,3.8-1c3.7-2,5-6.7,3-10.3l-24-42.2l49-2.2l34.5,55.5c-1.9,0.9-3.9,1.8-5.9,2.6c-3.9,1.6-5.8,6-4.2,9.9
		c1.2,2.9,4.1,4.7,7.1,4.7c1,0,2-0.2,2.9-0.6c5.1-2.1,9.9-4.3,14.7-6.7c0.1-0.1,0.3-0.1,0.4-0.2c0,0,0,0,0.1-0.1
		c56.9-28.2,89.3-72.3,90.7-74.3c0.3-0.4,0.4-0.8,0.6-1.2C1130.9,639.6,1131.1,639.4,1131.2,639.1L1131.2,639.1z M648,932.8
		c-45.3-57.4-123.6-42.7-126.9-42.1c-4.2,0.8-6.9,4.8-6,8.9c0.8,4.1,4.9,6.8,9.1,5.9c0.7-0.1,72.2-13.6,111.7,36.5
		c3.4,4.3,7.3,8.4,11.6,12.3c1.5,1.3,3.3,2,5.2,2c2.1,0,4.2-0.8,5.7-2.5c2.9-3.1,2.6-7.9-0.5-10.7
		C654.2,939.9,650.9,936.4,648,932.8 M974.4,886.6l-2.1-2c-5-4.9-59.6-58.7-101-99.5c-3-3-7.9-3-10.9,0c-3,3-3,7.8,0,10.7
		c41.4,40.8,96,94.6,101,99.5l2.2,2.1c7.9,7.6,29,27.9,29,43.2c0,3.8-1.3,6.8-4.2,9.7c-4.1,4.1-8.7,5.9-13.5,6
		c-10.6-0.1-20.6-9.1-22.7-11.1c-4.4-4.6-8.9-8.5-12.4-11.5c-1.5-1.3-2.8-2.4-3.6-3.2L903,897.6l-10.9,10.7l33.3,32.8
		c0.9,0.9,2.4,2.2,4.2,3.8c7.2,6.2,24,20.9,24.3,31.9c0.1,2.7-1,5.1-3.3,7.4c-3.6,3.5-7.2,5.2-11.1,4.9c-7.9-0.4-16-7.9-18.4-10.8
		l0,0c-2.1-2.8-4.5-5.6-7.5-8.5l-40.1-39.5l-10.9,10.7l40.1,39.5c6.5,6.4,10.5,12.3,11.7,17.4c1.3,5.1-0.2,9.4-4.8,13.9
		c-7.6,7.5-18.9,2.1-22.7-0.1c-1.9-3.1-4.1-6.1-6.8-8.7c-9.3-9.2-33.2-35.7-33.4-35.9c-2.8-3.1-7.7-3.4-10.9-0.6
		c-3.2,2.8-3.5,7.6-0.6,10.7c1,1.1,24.4,27.1,34,36.6c4,3.9,6.7,8.8,7.4,13.5c0.8,4.9-0.6,9.1-4.3,12.8c-1.5,1.5-3.3,2.1-5.6,2.2
		c-5.2,0-17.3-3.6-40.7-27.4c-2.9-3-7.8-3.1-10.9-0.2c-3.1,2.9-3.1,7.7-0.2,10.7c21.1,21.4,38,31.9,51.6,32h0.2
		c6.3,0,12-2.3,16.4-6.6c5.9-5.8,9-13.1,9-20.9c2.6,0.6,5.2,0.9,8,0.9c6.9,0,14.2-2.1,20.3-8.2c6.1-6,9.3-12.8,9.6-20.1
		c2.7,0.9,5.4,1.6,8.4,1.7c0.5,0,0.9,0,1.4,0c7.8,0,15.2-3.2,21.4-9.4c5.3-5.2,8-11.6,7.8-18.6c-0.1-1.9-0.4-3.8-0.8-5.6
		c2,0.4,4.1,0.6,6.2,0.7h0.5c9,0,17.2-3.5,24.2-10.4c5.8-5.7,8.7-12.6,8.7-20.5C1007.9,918.9,984.4,896.2,974.4,886.6"/>
	<path class="st2" d="M818.2,1003.9c-8.3,20.5-35.3,46.6-48.2,46.6c-1.6,0-2.4-0.5-3-1.2c-5.9-6.7,4-25.1,23.9-44.7
		c9-8.8,17.8-14.1,23.6-14.1c2,0,3.5,0.6,5,2C820.7,993.5,820.8,997.6,818.2,1003.9L818.2,1003.9z M721,1028
		c-9.6-9.5,8.1-35.4,29.9-57c3.3-3.2,7.6-7.5,12.3-11.6c0.2-0.2,0.4-0.3,0.6-0.5c0,0,0,0,0.1-0.1c7.7-6.6,16.4-12.6,23-12.6
		c2.3,0,4.1,0.8,5.9,2.5c2.8,2.8,4.2,5.9,4.1,9.6c0,14.9-20.9,35.3-29.9,44l-2.2,2.1c-1.1,1.1-2.3,2.3-3.5,3.6
		c-8.6,8.6-22.9,23.1-33.3,23.1C725.4,1031.1,723.2,1030.1,721,1028L721,1028z M685.6,999c-9-8.8,7.8-33.3,28.4-53.6
		c20.6-20.3,33.2-26.2,41-19.1c2.9,2.7,8.9,8.2-2.5,22.3c-4.2,3.7-8.4,7.7-12.5,11.7c-9.3,9.2-20.7,21.8-28.5,34.9
		C705,1000.6,694,1007.2,685.6,999L685.6,999z M657.3,967.6c-3.9-3.9,0.5-12.7,3.5-17.7c5.8-9.6,14.7-19,19.5-23.7l2-1.9
		c6.5-6.5,17.4-17.2,24-17.2c0.8,0,1.9,0.2,3.2,1.4c1.4,1.3,2,2.8,2,4.8c0.1,9.3-11.4,24.9-22.8,36.2l-2.8,2.8
		c-6,6-17.1,17.3-24.4,17.3C660.4,969.5,659,969.3,657.3,967.6L657.3,967.6z M814.6,975.3c-2.4,0-4.7,0.4-7,1
		c2.8-5.8,4.7-11.9,4.7-17.9c0-7.8-2.9-14.6-8.6-20.3c-4.6-4.6-10.4-7-16.8-7c-4.1,0-8.2,1-12.3,2.7c-0.2-8.6-5-14.9-9.2-18.6
		c-12.3-11.2-26.4-7.5-38.7-0.1c0-0.7,0.1-1.3,0.1-2c-0.1-6.1-2.4-11.6-6.8-15.6c-3.9-3.7-8.7-5.6-13.8-5.6c-13,0-25.1,12-34.9,21.7
		l-1.9,1.9c-5.3,5.2-15.2,15.6-21.9,26.7c-11.7,19.3-7,30.3-1.1,36.2c4.2,4.2,9.4,6.4,15,6.4c2.6,0,5.1-0.6,7.7-1.4
		c-2.8,9.8-1.9,19.1,5.6,26.5c5.6,5.6,12.5,8.3,19.8,8.3c2.8,0,5.7-0.4,8.7-1.3c-1.1,8.1,0.6,15.7,6.9,22c5.1,5,11.1,7.6,17.9,7.6
		c7.8,0,15.4-3.5,22.5-8.4c-1.7,7.7-0.6,15.1,4.9,21.3c3.7,4.2,8.8,6.4,14.6,6.4h0c22.6,0,53.5-34,62.4-56.1
		c6.3-15.5,2.3-23.9-2.2-28.1C825.9,977.4,820.5,975.3,814.6,975.3L814.6,975.3z M770.7,829.5c0-33.1,52.8-70.8,78.1-88.9
		c5.5-3.9,9.8-7,12.7-9.4c17.4-14.2,54-22.7,97.9-22.7c33.9,0,61.9,15.4,79.4,28.3c22,16.2,91.3,16.5,99,16.5c4.3,0,7.7-3.4,7.7-7.6
		c0-4.2-3.5-7.6-7.7-7.6h-0.7c-27.7,0-75.6-3.6-89-13.5c-19.4-14.3-50.5-31.3-88.6-31.3c-48.1,0-87.3,9.5-107.7,26.2
		c-2.5,2.1-6.9,5.2-12,8.8c-29.4,21.1-84.2,60.2-84.5,100.9c-0.4,4.3-2.9,41.4,14.2,59.7c6.5,7,14.7,10.5,24.6,10.5
		c8.7,0,15.7-2.7,20.8-8c11.1-11.5,10.1-31.8,9.3-48.2c-0.3-6.4-0.7-15.1,0.1-17c9-11.4,28.4-28.2,41.6-28.2c4.3,0,7.7-3.4,7.7-7.6
		c0-4.2-3.5-7.6-7.7-7.6c-22.1,0-46.3,24.6-53.8,34.1c-4.4,5.5-3.9,14.5-3.3,27c0.6,12.7,1.5,30.2-5.1,36.9
		c-1.4,1.4-3.9,3.3-9.7,3.3c-5.5,0-9.7-1.8-13.2-5.5c-10.9-11.7-11-39-10.2-48.5C770.7,829.9,770.7,829.7,770.7,829.5"/>
</g>
</svg>
